<svg width="92" height="37" viewBox="0 0 92 37" fill="none" xmlns="http://www.w3.org/2000/svg">
<circle cx="2" cy="35" r="2" transform="rotate(-90 2 35)" fill="#6A1A1A"/>
<circle cx="23.4545" cy="35" r="2" transform="rotate(-90 23.4545 35)" fill="#6A1A1A"/>
<circle cx="44.9091" cy="35" r="2" transform="rotate(-90 44.9091 35)" fill="#6A1A1A"/>
<circle cx="66.3636" cy="35" r="2" transform="rotate(-90 66.3636 35)" fill="#6A1A1A"/>
<circle cx="87.8182" cy="35" r="2" transform="rotate(-90 87.8182 35)" fill="#6A1A1A"/>
<circle cx="2" cy="18.7818" r="2" transform="rotate(-90 2 18.7818)" fill="#6A1A1A"/>
<circle cx="23.4545" cy="18.7818" r="2" transform="rotate(-90 23.4545 18.7818)" fill="#6A1A1A"/>
<circle cx="44.9091" cy="18.7818" r="2" transform="rotate(-90 44.9091 18.7818)" fill="#6A1A1A"/>
<circle cx="66.3636" cy="18.7818" r="2" transform="rotate(-90 66.3636 18.7818)" fill="#6A1A1A"/>
<circle cx="87.8182" cy="18.7818" r="2" transform="rotate(-90 87.8182 18.7818)" fill="#6A1A1A"/>
<circle cx="2" cy="2.56363" r="2" transform="rotate(-90 2 2.56363)" fill="#6A1A1A"/>
<circle cx="23.4545" cy="2.56363" r="2" transform="rotate(-90 23.4545 2.56363)" fill="#6A1A1A"/>
<circle cx="44.9091" cy="2.56363" r="2" transform="rotate(-90 44.9091 2.56363)" fill="#6A1A1A"/>
<circle cx="66.3636" cy="2.56363" r="2" transform="rotate(-90 66.3636 2.56363)" fill="#6A1A1A"/>
<circle cx="87.8182" cy="2.56363" r="2" transform="rotate(-90 87.8182 2.56363)" fill="#6A1A1A"/>
</svg>
