<svg width="40" height="21" viewBox="0 0 40 21" fill="none" xmlns="http://www.w3.org/2000/svg">
<path d="M40 0.500002C40 3.12644 39.4827 5.72716 38.4776 8.15367C37.4725 10.5802 35.9993 12.785 34.1421 14.6421C32.285 16.4993 30.0802 17.9725 27.6537 18.9776C25.2272 19.9827 22.6264 20.5 20 20.5C17.3736 20.5 14.7728 19.9827 12.3463 18.9776C9.91982 17.9725 7.71503 16.4993 5.85786 14.6421C4.00069 12.785 2.5275 10.5802 1.52241 8.15367C0.517315 5.72716 -2.2961e-07 3.12644 0 0.5L9.17834 0.500002C9.17834 1.92112 9.45825 3.32833 10.0021 4.64127C10.5459 5.95421 11.343 7.14718 12.3479 8.15207C13.3528 9.15695 14.5458 9.95407 15.8587 10.4979C17.1717 11.0417 18.5789 11.3217 20 11.3217C21.4211 11.3217 22.8283 11.0417 24.1413 10.4979C25.4542 9.95407 26.6472 9.15695 27.6521 8.15207C28.6569 7.14718 29.4541 5.95421 29.9979 4.64127C30.5417 3.32833 30.8217 1.92112 30.8217 0.500002H40Z" fill="#FFC040"/>
</svg>
