<svg width="40" height="21" viewBox="0 0 40 21" fill="none" xmlns="http://www.w3.org/2000/svg">
<path d="M40 0.927279C40 3.55372 39.4827 6.15444 38.4776 8.58095C37.4725 11.0075 35.9993 13.2122 34.1421 15.0694C32.285 16.9266 30.0802 18.3998 27.6537 19.4049C25.2272 20.41 22.6264 20.9273 20 20.9273C17.3736 20.9273 14.7728 20.41 12.3463 19.4049C9.91982 18.3998 7.71503 16.9266 5.85786 15.0694C4.00069 13.2122 2.5275 11.0075 1.52241 8.58095C0.517315 6.15443 -2.2961e-07 3.55371 0 0.927277L9.17834 0.927279C9.17834 2.3484 9.45825 3.7556 10.0021 5.06855C10.5459 6.38149 11.343 7.57446 12.3479 8.57934C13.3528 9.58423 14.5458 10.3813 15.8587 10.9252C17.1717 11.469 18.5789 11.7489 20 11.7489C21.4211 11.7489 22.8283 11.469 24.1413 10.9252C25.4542 10.3813 26.6472 9.58423 27.6521 8.57934C28.6569 7.57446 29.4541 6.38149 29.9979 5.06855C30.5417 3.7556 30.8217 2.3484 30.8217 0.927279H40Z" fill="#161616"/>
</svg>
