<svg width="41" height="38" viewBox="0 0 41 38" fill="none" xmlns="http://www.w3.org/2000/svg">
<path d="M9.93736 23.75V18.4285C9.93736 17.293 10.542 16.2316 11.4603 15.5563L31.8479 0.623289C32.4004 0.218426 33.0051 0 33.7591 0C34.6101 0 35.4238 0.336879 36.0285 0.936641L40.1195 5.00086C40.7242 5.60055 40.9929 6.41398 40.9929 7.26156C40.9929 7.94141 40.8436 8.54258 40.433 9.15859L25.4129 29.4277C24.7335 30.3406 23.5988 30.875 22.5238 30.875H17.104L15.275 32.7602C14.3419 33.6879 12.8339 33.6879 11.9007 32.7602L8.10836 28.9898C7.1752 28.0621 7.1752 26.5629 8.10836 25.6352L9.93736 23.75ZM35.7896 7.41594L33.6023 5.2391L17.5445 16.9961L23.8974 23.3121L35.7896 7.41594ZM0.973799 34.6082L5.67916 29.9324L10.9526 35.1723L8.6384 37.4137C8.30246 37.8145 7.84708 38 7.3693 38H2.24066C1.25151 38 0.44899 37.2059 0.44899 36.2188V35.8699C0.44899 35.3355 0.637861 34.9422 0.973799 34.6082Z" fill="#D3A758"/>
</svg>
